# xmcd CD database file
#
# Track frame offsets:
#	150
#	15625
#	31862
#	43977
#	55285
#	67568
#	80687
#	92139
#	107973
#	122946
#	138489
#	152558
#	168551
#	179451
#	193914
#	206702
#	219562
#	234078
#	247419
#
# Disc length: 3459 seconds
#
# Revision: 0
# Processed by: cddbd v1.5.2PL0 Copyright (c) Steve Scherf et al.
# Submitted via: CDex 1.51
#
DISCID=160d8113
DTITLE=Caterina Valente - The Hi-Fi Nightingale
DYEAR=1956
DGENRE=Jazz
TTITLE0=Just You, Just Me
TTITLE1=Istanbul
TTITLE2=Oho aha
TTITLE3=Casanova
TTITLE4=El Mosquito
TTITLE5=Ganz Paris träumt von der Liebe
TTITLE6=Gespensterblues
TTITLE7=The Breeze And I
TTITLE8=If Hearts Could Talk
TTITLE9=Temptation
TTITLE10=This Ecstasy
TTITLE11=Jalousie
TTITLE12=Fiesta Cubana
TTITLE13=Malaguena
TTITLE14=The Way You Love Me
TTITLE15=My Lonely Lover
TTITLE16=Begin The Beguine
TTITLE17=Siboney
TTITLE18=This Must Be Wrong
EXTD=YEAR: 1956
EXTT0=
EXTT1=
EXTT2=
EXTT3=
EXTT4=
EXTT5=
EXTT6=
EXTT7=
EXTT8=
EXTT9=
EXTT10=
EXTT11=
EXTT12=
EXTT13=
EXTT14=
EXTT15=
EXTT16=
EXTT17=
EXTT18=
PLAYORDER=
